<svg xmlns="http://www.w3.org/2000/svg" width="1400" height="260" viewBox="0 0 1400 260">
<defs>
<linearGradient id="g" x1="0" y1="0" x2="1400" y2="260" gradientUnits="userSpaceOnUse">
<stop offset="0%" stop-color="#3891ff"/>
<stop offset="50%" stop-color="#8f66fa"/>
<stop offset="100%" stop-color="#d62edc"/>
</linearGradient>
</defs>
<rect width="100%" height="100%" fill="#0f1219"/>
<path d="M 0 260 L 0 183.00 C 0.00 183.00, 4.96 180.33, 14.89 175.00 C 29.79 167.00, 34.75 165.00, 44.68 161.00 C 59.57 155.00, 64.54 153.67, 74.47 151.00 C 89.36 147.00, 94.33 146.50, 104.26 145.50 C 119.15 144.00, 124.11 144.17, 134.04 144.50 C 148.94 145.00, 153.90 145.67, 163.83 147.00 C 178.72 149.00, 183.69 149.83, 193.62 151.50 C 208.51 154.00, 213.48 154.67, 223.40 156.00 C 238.30 158.00, 243.26 158.33, 253.19 159.00 C 268.09 160.00, 273.05 160.00, 282.98 160.00 C 297.87 160.00, 302.84 159.50, 312.77 158.50 C 327.66 157.00, 332.62 156.17, 342.55 154.50 C 357.45 152.00, 362.41 151.17, 372.34 149.50 C 387.23 147.00, 392.20 146.33, 402.13 145.00 C 417.02 143.00, 421.99 142.83, 431.91 142.50 C 446.81 142.00, 451.77 142.67, 461.70 144.00 C 476.60 146.00, 481.56 147.33, 491.49 150.00 C 506.38 154.00, 511.35 156.17, 521.28 160.50 C 536.17 167.00, 541.13 169.67, 551.06 175.00 C 565.96 183.00, 570.92 185.83, 580.85 191.50 C 595.74 200.00, 600.71 202.67, 610.64 208.00 C 625.53 216.00, 630.50 218.33, 640.43 223.00 C 655.32 230.00, 660.28 231.67, 670.21 235.00 C 685.11 240.00, 690.07 240.67, 700.00 242.00 C 714.89 244.00, 719.86 244.00, 729.79 244.00 C 744.68 244.00, 749.65 243.33, 759.57 242.00 C 774.47 240.00, 779.43 239.00, 789.36 237.00 C 804.26 234.00, 809.22 233.00, 819.15 231.00 C 834.04 228.00, 839.01 227.00, 848.94 225.00 C 863.83 222.00, 868.79 221.67, 878.72 221.00 C 893.62 220.00, 898.58 219.83, 908.51 219.50 C 923.40 219.00, 928.37 219.50, 938.30 220.50 C 953.19 222.00, 958.16 222.50, 968.09 223.50 C 982.98 225.00, 987.94 225.67, 997.87 227.00 C 1012.77 229.00, 1017.73 229.17, 1027.66 229.50 C 1042.55 230.00, 1047.52 229.67, 1057.45 229.00 C 1072.34 228.00, 1077.30 227.00, 1087.23 225.00 C 1102.13 222.00, 1107.09 220.17, 1117.02 216.50 C 1131.91 211.00, 1136.88 208.67, 1146.81 204.00 C 1161.70 197.00, 1166.67 194.17, 1176.60 188.50 C 1191.49 180.00, 1196.45 177.17, 1206.38 171.50 C 1221.28 163.00, 1226.24 160.50, 1236.17 155.50 C 1251.06 148.00, 1256.03 146.17, 1265.96 142.50 C 1280.85 137.00, 1285.82 136.00, 1295.74 134.00 C 1310.64 131.00, 1315.60 130.83, 1325.53 130.50 C 1340.43 130.00, 1345.39 130.50, 1355.32 131.50 C 1370.21 133.00, 1375.18 134.17, 1385.11 136.50 L 1400 140.00 L 1400 260 Z" fill="url(#g)" opacity="0.85"/>
<path d="M -0.50 180.89 C 0.00 180.89, 4.96 178.25, 14.89 172.98 C 29.79 165.07, 34.75 163.10, 44.68 159.14 C 59.57 153.21, 64.54 151.89, 74.47 149.26 C 89.36 145.30, 94.33 144.81, 104.26 143.82 C 119.15 142.34, 124.11 142.50, 134.04 142.83 C 148.94 143.33, 153.90 143.99, 163.83 145.30 C 178.72 147.28, 183.69 148.10, 193.62 149.75 C 208.51 152.22, 213.48 152.88, 223.40 154.20 C 238.30 156.18, 243.26 156.51, 253.19 157.17 C 268.09 158.15, 273.05 158.15, 282.98 158.15 C 297.87 158.15, 302.84 157.66, 312.77 156.67 C 327.66 155.19, 332.62 154.36, 342.55 152.72 C 357.45 150.25, 362.41 149.42, 372.34 147.78 C 387.23 145.30, 392.20 144.64, 402.13 143.33 C 417.02 141.35, 421.99 141.19, 431.91 140.86 C 446.81 140.36, 451.77 141.02, 461.70 142.34 C 476.60 144.32, 481.56 145.63, 491.49 148.27 C 506.38 152.22, 511.35 154.36, 521.28 158.65 C 536.17 165.07, 541.13 167.71, 551.06 172.98 C 565.96 180.89, 570.92 183.69, 580.85 189.29 C 595.74 197.69, 600.71 200.33, 610.64 205.60 C 625.53 213.51, 630.50 215.81, 640.43 220.43 C 655.32 227.35, 660.28 228.99, 670.21 232.29 C 685.11 237.23, 690.07 237.89, 700.00 239.21 C 714.89 241.18, 719.86 241.18, 729.79 241.18 C 744.68 241.18, 749.65 240.53, 759.57 239.21 C 774.47 237.23, 779.43 236.24, 789.36 234.27 C 804.26 231.30, 809.22 230.31, 819.15 228.33 C 834.04 225.37, 839.01 224.38, 848.94 222.40 C 863.83 219.44, 868.79 219.11, 878.72 218.45 C 893.62 217.46, 898.58 217.30, 908.51 216.97 C 923.40 216.47, 928.37 216.97, 938.30 217.96 C 953.19 219.44, 958.16 219.93, 968.09 220.92 C 982.98 222.40, 987.94 223.06, 997.87 224.38 C 1012.77 226.36, 1017.73 226.52, 1027.66 226.85 C 1042.55 227.35, 1047.52 227.02, 1057.45 226.36 C 1072.34 225.37, 1077.30 224.38, 1087.23 222.40 C 1102.13 219.44, 1107.09 217.63, 1117.02 214.00 C 1131.91 208.57, 1136.88 206.26, 1146.81 201.65 C 1161.70 194.73, 1166.67 191.93, 1176.60 186.32 C 1191.49 177.92, 1196.45 175.12, 1206.38 169.52 C 1221.28 161.12, 1226.24 158.65, 1236.17 153.71 C 1251.06 146.29, 1256.03 144.48, 1265.96 140.86 C 1280.85 135.42, 1285.82 134.43, 1295.74 132.45 C 1310.64 129.49, 1315.60 129.32, 1325.53 128.99 C 1340.43 128.50, 1345.39 128.99, 1355.32 129.98 C 1370.21 131.47, 1375.18 132.62, 1385.11 134.92 L 1400.50 138.38" fill="none" stroke="url(#g)" stroke-width="6" stroke-linecap="round"/>
</svg>